HIERARCHY
ROOT Hips
{
	OFFSET 0.000000 97.167313 0.000000
	CHANNELS 6 Xposition Yposition Zposition Xrotation Yrotation Zrotation
	JOINT Spine
	{
		OFFSET 0.000000 13.784798 0.064400
		CHANNELS 3 Xrotation Yrotation Zrotation
		JOINT Spine1
		{
			OFFSET 0.000000 12.037903 0.404700
			CHANNELS 3 Xrotation Yrotation Zrotation
			JOINT Spine2
			{
				OFFSET 0.000000 17.795601 0.420200
				CHANNELS 3 Xrotation Yrotation Zrotation
				JOINT Neck
				{
					OFFSET 0.000000 39.131302 11.954600
					CHANNELS 3 Xrotation Yrotation Zrotation
					JOINT Head
					{
						OFFSET 0.000000 14.456192 15.627699
						CHANNELS 3 Xrotation Yrotation Zrotation
						JOINT HeadTop_End
						{
							OFFSET 0.000000 15.703506 7.603401
							CHANNELS 3 Xrotation Yrotation Zrotation
							End Site
							{
								OFFSET 0.000000 17.447403 0.000000
							}
						}
					}
				}
				JOINT LeftShoulder
				{
					OFFSET 17.399500 24.608795 1.168800
					CHANNELS 3 Xrotation Yrotation Zrotation
					JOINT LeftArm
					{
						OFFSET 18.980635 5.765305 1.818600
						CHANNELS 3 Xrotation Yrotation Zrotation
						JOINT LeftForeArm
						{
							OFFSET 49.290169 0.000000 0.000000
							CHANNELS 3 Xrotation Yrotation Zrotation
							JOINT LeftHand
							{
								OFFSET 31.562012 0.000000 0.000000
								CHANNELS 3 Xrotation Yrotation Zrotation
								JOINT LeftHandThumb1
								{
									OFFSET 6.133995 -4.388519 7.076070
									CHANNELS 3 Xrotation Yrotation Zrotation
									JOINT LeftHandThumb2
									{
										OFFSET 6.037666 -3.485840 3.485847
										CHANNELS 3 Xrotation Yrotation Zrotation
										JOINT LeftHandThumb3
										{
											OFFSET 6.496506 -3.750763 3.750761
											CHANNELS 3 Xrotation Yrotation Zrotation
											JOINT LeftHandThumb4
											{
												OFFSET 5.616882 -3.242905 3.242910
												CHANNELS 3 Xrotation Yrotation Zrotation
												End Site
												{
													OFFSET -1.254608 7.132141 0.375429
												}
											}
										}
									}
								}
								JOINT LeftHandPinky1
								{
									OFFSET 18.920792 -0.453171 -11.426712
									CHANNELS 3 Xrotation Yrotation Zrotation
									JOINT LeftHandPinky2
									{
										OFFSET 4.919586 0.000000 0.000000
										CHANNELS 3 Xrotation Yrotation Zrotation
										JOINT LeftHandPinky3
										{
											OFFSET 5.233047 0.000000 0.000000
											CHANNELS 3 Xrotation Yrotation Zrotation
											JOINT LeftHandPinky4
											{
												OFFSET 5.571716 0.000000 0.000000
												CHANNELS 3 Xrotation Yrotation Zrotation
												End Site
												{
													OFFSET -3.459808 4.342407 -0.466164
												}
											}
										}
									}
								}
								JOINT LeftHandRing1
								{
									OFFSET 22.726120 -0.094986 -6.500475
									CHANNELS 3 Xrotation Yrotation Zrotation
									JOINT LeftHandRing2
									{
										OFFSET 6.408615 0.000000 0.000000
										CHANNELS 3 Xrotation Yrotation Zrotation
										JOINT LeftHandRing3
										{
											OFFSET 6.150223 0.000000 0.000000
											CHANNELS 3 Xrotation Yrotation Zrotation
											JOINT LeftHandRing4
											{
												OFFSET 6.145386 0.000000 0.000000
												CHANNELS 3 Xrotation Yrotation Zrotation
												End Site
												{
													OFFSET -3.671402 4.923981 -0.202372
												}
											}
										}
									}
								}
								JOINT LeftHandMiddle1
								{
									OFFSET 23.373947 0.000000 0.000001
									CHANNELS 3 Xrotation Yrotation Zrotation
									JOINT LeftHandMiddle2
									{
										OFFSET 6.996567 0.000000 0.000000
										CHANNELS 3 Xrotation Yrotation Zrotation
										JOINT LeftHandMiddle3
										{
											OFFSET 7.015945 0.000000 0.000000
											CHANNELS 3 Xrotation Yrotation Zrotation
											JOINT LeftHandMiddle4
											{
												OFFSET 7.721573 0.000000 0.000000
												CHANNELS 3 Xrotation Yrotation Zrotation
												End Site
												{
													OFFSET -4.651108 6.158463 0.251582
												}
											}
										}
									}
								}
								JOINT LeftHandIndex1
								{
									OFFSET 21.310577 -0.490082 6.209344
									CHANNELS 3 Xrotation Yrotation Zrotation
									JOINT LeftHandIndex2
									{
										OFFSET 7.536453 0.000000 0.000000
										CHANNELS 3 Xrotation Yrotation Zrotation
										JOINT LeftHandIndex3
										{
											OFFSET 7.512344 0.000000 0.000000
											CHANNELS 3 Xrotation Yrotation Zrotation
											JOINT LeftHandIndex4
											{
												OFFSET 10.212402 0.000000 0.000001
												CHANNELS 3 Xrotation Yrotation Zrotation
												End Site
												{
													OFFSET -5.180801 8.690506 1.388433
												}
											}
										}
									}
								}
							}
						}
					}
				}
				JOINT RightShoulder
				{
					OFFSET -17.399500 24.608795 1.168800
					CHANNELS 3 Xrotation Yrotation Zrotation
					JOINT RightArm
					{
						OFFSET -18.980635 5.765305 1.818600
						CHANNELS 3 Xrotation Yrotation Zrotation
						JOINT RightForeArm
						{
							OFFSET -49.290169 0.000000 0.000000
							CHANNELS 3 Xrotation Yrotation Zrotation
							JOINT RightHand
							{
								OFFSET -31.562012 0.000000 0.000000
								CHANNELS 3 Xrotation Yrotation Zrotation
								JOINT RightHandThumb1
								{
									OFFSET -6.133995 -4.388519 7.076070
									CHANNELS 3 Xrotation Yrotation Zrotation
									JOINT RightHandThumb2
									{
										OFFSET -6.037666 -3.485840 3.485847
										CHANNELS 3 Xrotation Yrotation Zrotation
										JOINT RightHandThumb3
										{
											OFFSET -6.496506 -3.750763 3.750761
											CHANNELS 3 Xrotation Yrotation Zrotation
											JOINT RightHandThumb4
											{
												OFFSET -5.616882 -3.242905 3.242910
												CHANNELS 3 Xrotation Yrotation Zrotation
												End Site
												{
													OFFSET 1.254608 7.132141 0.375429
												}
											}
										}
									}
								}
								JOINT RightHandIndex1
								{
									OFFSET -21.310577 -0.490082 6.209344
									CHANNELS 3 Xrotation Yrotation Zrotation
									JOINT RightHandIndex2
									{
										OFFSET -7.536453 0.000000 0.000000
										CHANNELS 3 Xrotation Yrotation Zrotation
										JOINT RightHandIndex3
										{
											OFFSET -7.512344 0.000000 0.000000
											CHANNELS 3 Xrotation Yrotation Zrotation
											JOINT RightHandIndex4
											{
												OFFSET -10.212402 0.000000 0.000001
												CHANNELS 3 Xrotation Yrotation Zrotation
												End Site
												{
													OFFSET 5.180801 8.690506 1.388433
												}
											}
										}
									}
								}
								JOINT RightHandMiddle1
								{
									OFFSET -23.373947 0.000000 0.000001
									CHANNELS 3 Xrotation Yrotation Zrotation
									JOINT RightHandMiddle2
									{
										OFFSET -6.996567 0.000000 0.000000
										CHANNELS 3 Xrotation Yrotation Zrotation
										JOINT RightHandMiddle3
										{
											OFFSET -7.015945 0.000000 0.000000
											CHANNELS 3 Xrotation Yrotation Zrotation
											JOINT RightHandMiddle4
											{
												OFFSET -7.721573 0.000000 0.000000
												CHANNELS 3 Xrotation Yrotation Zrotation
												End Site
												{
													OFFSET 4.651108 6.158463 0.251582
												}
											}
										}
									}
								}
								JOINT RightHandRing1
								{
									OFFSET -22.726120 -0.094986 -6.500475
									CHANNELS 3 Xrotation Yrotation Zrotation
									JOINT RightHandRing2
									{
										OFFSET -6.408615 0.000000 0.000000
										CHANNELS 3 Xrotation Yrotation Zrotation
										JOINT RightHandRing3
										{
											OFFSET -6.150223 0.000000 0.000000
											CHANNELS 3 Xrotation Yrotation Zrotation
											JOINT RightHandRing4
											{
												OFFSET -6.145386 0.000000 0.000000
												CHANNELS 3 Xrotation Yrotation Zrotation
												End Site
												{
													OFFSET 3.671402 4.923981 -0.202372
												}
											}
										}
									}
								}
								JOINT RightHandPinky1
								{
									OFFSET -18.920792 -0.453171 -11.426712
									CHANNELS 3 Xrotation Yrotation Zrotation
									JOINT RightHandPinky2
									{
										OFFSET -4.919586 0.000000 0.000000
										CHANNELS 3 Xrotation Yrotation Zrotation
										JOINT RightHandPinky3
										{
											OFFSET -5.233047 0.000000 0.000000
											CHANNELS 3 Xrotation Yrotation Zrotation
											JOINT RightHandPinky4
											{
												OFFSET -5.571716 0.000000 0.000000
												CHANNELS 3 Xrotation Yrotation Zrotation
												End Site
												{
													OFFSET 3.459808 4.342407 -0.466164
												}
											}
										}
									}
								}
							}
						}
					}
				}
			}
		}
	}
	JOINT LeftUpLeg
	{
		OFFSET 19.899099 -7.885101 -3.429500
		CHANNELS 3 Xrotation Yrotation Zrotation
		JOINT LeftLeg
		{
			OFFSET 1.745560 -36.997807 10.304700
			CHANNELS 3 Xrotation Yrotation Zrotation
			JOINT LeftFoot
			{
				OFFSET -1.745558 -29.803308 -13.615400
				CHANNELS 3 Xrotation Yrotation Zrotation
				JOINT LeftToeBase
				{
					OFFSET 1.181900 -18.539904 15.226099
					CHANNELS 3 Xrotation Yrotation Zrotation
					JOINT LeftToe_End
					{
						OFFSET -0.863701 1.402801 16.534700
						CHANNELS 3 Xrotation Yrotation Zrotation
						End Site
						{
							OFFSET 0.000000 16.616566 0.000000
						}
					}
				}
			}
		}
	}
	JOINT RightUpLeg
	{
		OFFSET -19.899099 -7.885101 -3.429500
		CHANNELS 3 Xrotation Yrotation Zrotation
		JOINT RightLeg
		{
			OFFSET -1.745560 -36.997807 10.304700
			CHANNELS 3 Xrotation Yrotation Zrotation
			JOINT RightFoot
			{
				OFFSET 1.745558 -29.803308 -13.615400
				CHANNELS 3 Xrotation Yrotation Zrotation
				JOINT RightToeBase
				{
					OFFSET -1.181900 -18.539904 15.226099
					CHANNELS 3 Xrotation Yrotation Zrotation
					JOINT RightToe_End
					{
						OFFSET 0.863701 1.402801 16.534700
						CHANNELS 3 Xrotation Yrotation Zrotation
						End Site
						{
							OFFSET 0.000000 16.616566 0.000000
						}
					}
				}
			}
		}
	}
}
MOTION
Frames: 4
Frame Time: 0.033333
-6.982647 35.171677 6.506735 28.686064 -35.688944 19.831051 1.688344 4.298910 0.524384 9.538865 3.312615 -7.711062 9.618518 2.818965 -8.196784 24.047120 35.175573 -31.975886 -21.333380 38.547084 -5.278458 -0.000000 0.000000 0.000001 7.834936 -3.238264 -10.147461 -85.321323 -39.732911 -64.071430 52.862085 -2.632840 14.106239 -3.423475 -13.101534 -3.412364 40.109849 -15.297260 -0.360558 5.639959 28.098232 11.338807 1.088546 40.896246 22.734025 -0.000003 0.000001 -0.000001 -17.946911 14.755118 -51.486055 8.857196 8.678432 -84.811736 4.525024 8.855456 -59.151904 0.000000 0.000001 -0.000007 -9.042468 10.045689 -60.766205 8.524096 9.508796 -66.893152 6.576352 9.896639 -70.385011 0.000003 -0.000002 0.000003 -2.345651 4.688909 -62.655238 8.754080 9.897150 -87.051328 1.995503 4.929355 -37.483392 -0.000000 0.000002 -0.000001 6.882156 2.840153 -61.140513 8.248032 7.640034 -89.897987 2.146230 8.173543 -41.827501 -0.000001 0.000003 0.000002 13.398716 5.019271 25.856678 21.929104 -1.734729 27.922013 -6.698639 32.052978 6.287575 -2.616390 1.115348 6.271942 -2.349029 -6.096109 10.731905 4.704797 -31.879211 -9.630637 -1.027991 6.565217 3.322007 -0.000000 -0.000001 0.000002 -0.101673 0.531803 23.962090 0.050102 -0.072409 28.290635 0.031857 -2.023147 20.285162 -0.000001 -0.000003 -0.000001 0.341146 -5.923804 23.170146 1.472703 -4.240153 44.587366 0.061795 1.695731 20.763377 0.000003 0.000001 -0.000004 2.752877 -10.219294 21.099265 2.607844 -1.788653 44.415754 2.366643 -2.146684 37.047417 -0.000000 -0.000001 -0.000002 2.121928 -19.178505 31.947821 3.357350 -2.084730 40.356453 6.338238 -5.000279 51.516784 -0.000001 0.000004 0.000001 -119.196158 -23.502963 26.254148 95.642572 -28.750899 2.506830 -3.001408 -7.725020 -25.627486 -1.836418 0.004775 -0.000078 0.000000 0.000003 0.000000 -57.275453 -2.315517 -94.141433 82.946931 61.023075 53.567172 -34.056956 5.602517 -11.047844 -10.969946 0.026512 -0.087377 0.000000 0.000000 -0.000000 
-6.987492 35.154335 6.471678 28.444663 -35.468599 19.566926 1.724233 4.370951 0.411807 9.583638 3.340286 -7.764102 9.662045 2.842071 -8.247825 24.014996 35.248895 -32.044816 -21.471948 38.574607 -5.047676 -0.000001 -0.000000 0.000001 7.807993 -3.361402 -10.159209 -85.564512 -40.039716 -64.195227 52.906966 -2.547666 13.952550 -3.399158 -13.168892 -3.288204 40.109845 -15.297264 -0.360559 5.639957 28.098229 11.338801 1.088542 40.896253 22.734022 0.000002 -0.000000 -0.000003 -17.946908 14.755119 -51.486058 8.857198 8.678432 -84.811736 4.525026 8.855456 -59.151904 0.000000 -0.000000 -0.000000 -9.042469 10.045691 -60.766199 8.524095 9.508795 -66.893152 6.576354 9.896639 -70.385011 0.000001 -0.000001 0.000001 -2.345651 4.688910 -62.655231 8.754081 9.897149 -87.051328 1.995503 4.929356 -37.483388 -0.000002 -0.000001 0.000004 6.882155 2.840154 -61.140513 8.248034 7.640034 -89.897980 2.146232 8.173549 -41.827505 -0.000002 0.000003 0.000001 13.189495 5.457156 25.728412 21.128564 -2.461043 27.920029 -6.444877 31.084812 5.977494 -2.520208 1.313769 6.035177 -2.349032 -6.096112 10.731903 4.703309 -31.876049 -9.629346 -1.025726 6.560311 3.320355 -0.000001 0.000001 0.000002 -0.100936 0.530065 22.960779 0.048502 -0.073357 27.289483 0.032091 -2.023527 19.289899 -0.000000 -0.000003 -0.000002 0.341369 -5.924116 22.712701 1.472469 -4.239705 44.116820 0.062187 1.696385 19.798639 0.000002 0.000001 -0.000006 2.754814 -10.219185 20.497435 2.608144 -1.788282 43.739012 2.366649 -2.146334 36.361537 -0.000000 0.000000 -0.000007 2.126472 -19.178264 31.279142 3.358101 -2.083903 39.608834 6.341966 -4.996919 50.322679 -0.000003 -0.000001 -0.000001 -119.493640 -23.345488 25.920228 95.494972 -28.716086 2.603707 -2.618346 -7.855029 -25.675204 -1.836418 0.004776 -0.000078 0.000000 -0.000000 -0.000000 -56.761635 -2.726465 -94.567343 82.020299 61.210584 54.590956 -33.920106 5.661405 -11.127271 -11.100801 0.026760 -0.087312 0.000000 0.000000 -0.000000 
-6.973867 35.132179 6.441826 28.198306 -35.329625 19.291446 1.767315 4.431100 0.337744 9.624371 3.359652 -7.796313 9.701645 2.860162 -8.275463 23.970441 35.317119 -32.210209 -21.656602 38.593236 -4.752864 0.000000 0.000002 -0.000001 7.677595 -3.546670 -10.593932 -85.477488 -40.647514 -64.035776 52.876674 -2.557012 13.839493 -3.392801 -13.211015 -3.244693 40.109849 -15.297257 -0.360560 5.639957 28.098230 11.338807 1.088545 40.896246 22.734027 0.000001 0.000001 -0.000001 -17.946909 14.755119 -51.486055 8.857192 8.678433 -84.811743 4.525023 8.855457 -59.151904 -0.000001 -0.000001 -0.000002 -9.042467 10.045689 -60.766205 8.524096 9.508793 -66.893152 6.576352 9.896641 -70.385011 0.000000 0.000003 0.000003 -2.345651 4.688913 -62.655238 8.754078 9.897150 -87.051328 1.995502 4.929359 -37.483392 -0.000001 0.000000 0.000001 6.882156 2.840154 -61.140520 8.248032 7.640034 -89.897980 2.146229 8.173537 -41.827505 -0.000004 0.000003 0.000002 12.989953 6.004777 25.469267 20.210257 -3.311429 27.988510 -6.378148 30.121845 5.767591 -2.370142 1.321689 5.551962 -2.349029 -6.096106 10.731907 4.701664 -31.872514 -9.628086 -1.025799 6.560412 3.320337 0.000000 -0.000001 -0.000000 -0.099996 0.528495 21.974773 0.047048 -0.074219 26.302659 0.031711 -2.024236 18.313791 -0.000004 0.000000 0.000002 0.341977 -5.924317 22.319880 1.472309 -4.239063 43.724477 0.062634 1.697064 18.862544 -0.000001 0.000002 -0.000001 2.757828 -10.219129 19.986634 2.608487 -1.788636 43.110088 2.367068 -2.146807 35.733777 0.000001 0.000001 0.000002 2.126488 -19.177500 30.707192 3.358405 -2.083811 38.915624 6.345684 -4.991059 49.161072 0.000000 0.000001 0.000002 -119.755114 -23.255683 25.638401 95.403126 -28.697306 2.686745 -2.260110 -7.964840 -25.707271 -1.836418 0.004778 -0.000078 -0.000000 0.000003 0.000000 -56.346390 -3.045101 -94.911837 81.293417 61.339409 55.389515 -33.748955 5.707937 -11.180735 -11.189346 0.027025 -0.087245 -0.000000 0.000000 -0.000000 
-6.945454 35.105934 6.416948 27.950883 -35.285167 19.011852 1.816844 4.478023 0.297372 9.659753 3.372353 -7.806605 9.736246 2.874056 -8.282764 23.914444 35.372027 -32.465385 -21.888818 38.611039 -4.408593 -0.000000 0.000000 -0.000002 7.616002 -3.592338 -10.828871 -85.424425 -40.958233 -63.944941 52.770499 -2.653403 13.758662 -3.403196 -13.215800 -3.272671 40.109845 -15.297262 -0.360564 5.639960 28.098229 11.338808 1.088539 40.896253 22.734025 0.000001 -0.000000 -0.000002 -17.946915 14.755116 -51.486058 8.857192 8.678433 -84.811743 4.525023 8.855461 -59.151904 0.000000 0.000002 -0.000002 -9.042470 10.045690 -60.766205 8.524093 9.508796 -66.893152 6.576351 9.896638 -70.385011 0.000000 0.000001 0.000003 -2.345652 4.688913 -62.655238 8.754078 9.897148 -87.051335 1.995502 4.929355 -37.483388 0.000003 -0.000001 0.000004 6.882154 2.840154 -61.140520 8.248031 7.640036 -89.897980 2.146230 8.173541 -41.827508 -0.000002 0.000001 0.000002 12.723024 6.660932 25.330230 19.228116 -4.413434 27.922592 -6.400610 29.183045 5.604369 -2.187085 1.115571 4.893671 -2.349029 -6.096111 10.731900 4.690959 -31.839183 -9.621756 -1.026463 6.561992 3.320833 -0.000000 0.000000 0.000002 -0.099013 0.526992 20.949430 0.045595 -0.075112 25.277215 0.033969 -2.024613 17.302385 -0.000004 -0.000003 -0.000001 0.349881 -5.922876 21.897458 1.471658 -4.238710 43.226911 0.063081 1.697378 17.815078 -0.000003 -0.000000 -0.000006 2.763826 -10.223218 19.475024 2.608689 -1.794595 42.433742 2.364554 -2.155082 35.000464 -0.000002 -0.000002 -0.000003 2.151827 -19.171916 30.152246 3.360540 -2.079223 38.182636 6.351634 -4.980512 47.985562 -0.000001 -0.000002 0.000002 -119.965743 -23.243653 25.427474 95.375874 -28.704519 2.751514 -1.942617 -8.044143 -25.721143 -1.836418 0.004776 -0.000078 0.000000 0.000002 -0.000000 -56.097822 -3.217161 -95.165586 80.877260 61.407635 55.846062 -33.505274 5.716483 -11.210207 -11.248090 0.027109 -0.087192 -0.000000 0.000000 0.000000 
